<svg width="313" height="185" viewBox="0 0 313 185" fill="none" xmlns="http://www.w3.org/2000/svg">
<path d="M58.426 107.845C53.789 100.349 51.4705 83.3681 51.4705 56.9035L51.6128 48.4342C51.6128 47.877 51.7498 47.4617 52.0238 47.1883C52.3083 46.9149 52.5876 46.7782 52.8616 46.7782L53.2726 46.6363C60.9763 45.8056 68.1426 42.6829 74.7713 37.268C81.4001 31.8531 84.7145 25.6287 84.7145 18.5946C84.7145 15.8188 83.9979 13.39 82.5646 11.3082C81.1208 9.22632 79.2186 7.65443 76.858 6.59248C74.4973 5.53053 72.084 4.74196 69.618 4.22676C67.1625 3.72207 64.7281 3.46972 62.3147 3.46972C58.0571 3.46972 53.8417 4.16367 49.6684 5.55156C45.4951 6.93945 41.8277 9.20529 38.6661 12.3491C35.5151 15.4929 33.9395 19.1939 33.9395 23.4522C33.9395 26.0492 34.6825 28.641 36.1685 31.2275C36.5373 32.1528 36.7217 32.7521 36.7217 33.0255C36.7217 33.5827 36.4425 33.8614 35.8839 33.8614C35.0514 33.8614 33.987 33.4461 32.6907 32.6154C26.9367 29.1878 24.0596 25.0714 24.0596 20.2664C24.0596 13.9683 27.9325 9.01603 35.6784 5.40962C43.4243 1.80321 52.5349 0 63.0103 0C66.5407 0 69.9974 0.231319 73.3802 0.693949C76.7631 1.15658 80.4042 1.94515 84.3035 3.05967C88.1922 4.16368 91.3222 5.94059 93.6934 8.39043C96.054 10.8508 97.2344 13.8368 97.2344 17.3486C97.2344 22.0696 95.1741 26.6959 91.0535 31.2275C86.9223 35.7592 82.3539 39.4129 77.348 42.1887C72.3422 44.9645 67.6104 46.9097 63.1525 48.0242C62.5097 48.4868 62.1883 48.9967 62.1883 49.554C62.1883 52.8765 62.2778 56.6459 62.457 60.8622C62.6467 65.0679 63.0419 70.9401 63.6426 78.4789C64.2433 86.0282 65.4025 92.831 67.1203 98.8872C68.8381 104.943 70.9933 109.175 73.5858 111.583C74.0495 112.046 74.2813 112.461 74.2813 112.829C74.2813 113.576 73.122 113.949 70.8036 113.949C68.1162 113.949 65.7503 113.439 63.7058 112.419C61.6719 111.399 60.3071 110.474 59.6116 109.643C58.916 108.813 58.5208 108.213 58.426 107.845ZM26.8418 84.1093C24.9027 88.5464 22.7739 92.5681 20.4554 96.1745C18.1369 99.7914 16.0029 102.615 14.0532 104.644C12.1036 106.684 10.2962 108.397 8.63111 109.785C6.95547 111.173 5.60653 112.098 4.58429 112.561L3.19319 113.255C2.64519 113.528 2.09191 113.665 1.53337 113.665C0.511122 113.665 0 113.066 0 111.867L0.411005 110.195C1.3384 107.609 4.51579 101.064 9.94317 90.5599C15.3705 80.0561 20.4976 70.5511 25.3242 62.045C29.7715 54.0857 34.0607 46.6573 38.1919 39.7599C42.3125 32.873 45.3002 27.9944 47.1549 25.124L50.0794 20.6764C52.3979 17.5326 54.7638 15.1301 57.1772 13.4688C59.5905 11.7971 61.5349 10.9612 63.0103 10.9612C64.0325 10.9612 64.5436 11.3344 64.5436 12.081C64.5436 12.6277 64.1748 13.595 63.4371 14.9829C62.7837 16.0974 60.207 20.7027 55.707 28.7987C51.2176 36.8948 45.885 46.7467 39.7094 58.3545C33.5443 69.9728 29.2551 78.5578 26.8418 84.1093ZM111.145 59.1273C112.262 56.8141 112.821 54.7796 112.821 53.0237C112.821 51.5412 112.357 50.7999 111.43 50.7999C110.871 50.7999 110.244 50.9629 109.549 51.2889C108.853 51.6043 108.321 51.9513 107.952 52.3298L107.257 52.8818C104.38 55.3737 100.786 59.9316 96.4756 66.5557C92.1653 73.1692 90.0102 77.4012 90.0102 79.2517C90.0102 79.6197 90.0997 79.8037 90.2789 79.8037C90.8374 79.8037 92.0652 79.3411 93.9621 78.4158C95.8696 77.4906 98.6096 75.3141 102.182 71.8864C105.744 68.4693 108.732 64.2162 111.145 59.1273ZM104.885 90.9068C109.807 86.3752 116.857 78.8784 126.036 68.4167C126.31 68.1433 126.542 68.0066 126.732 68.0066C126.911 68.0066 127.001 68.1906 127.001 68.5586C127.001 70.3145 126.305 72.0284 124.914 73.7001C118.053 81.281 111.983 87.6158 106.703 92.7048C102.804 96.5951 98.167 100.322 92.7923 103.887C87.4071 107.451 82.9546 109.233 79.4347 109.233C75.1665 109.233 73.0325 106.268 73.0325 100.338C73.0325 90.5388 76.6736 80.2716 83.9557 69.5365C91.2379 58.8014 99.653 51.536 109.201 47.7403C113.185 46.079 116.799 45.2484 120.045 45.2484C123.67 45.2484 125.483 46.6836 125.483 49.554C125.483 54.9163 121.679 61.0672 114.07 68.0066C106.461 74.9461 97.9299 80.219 88.4768 83.8254C88.1079 83.9201 87.7812 84.246 87.4967 84.8033C86.1056 88.5989 85.4101 91.974 85.4101 94.9286C85.4101 98.2616 86.6641 99.9281 89.1723 99.9281C93.1559 99.9281 98.3936 96.921 104.885 90.9068ZM146.76 92.7048C142.587 96.6897 137.882 100.417 132.644 103.887C127.406 107.356 122.975 109.091 119.35 109.091C115.092 109.091 112.963 105.806 112.963 99.2342C112.963 92.2947 115.419 84.593 120.33 76.129C125.241 67.6649 131.48 60.4258 139.046 54.4116C146.602 48.3974 153.763 45.3903 160.529 45.3903C164.144 45.3903 165.951 46.7309 165.951 49.4121C165.951 54.0384 162.937 59.264 156.909 65.0889C156.361 65.6462 155.16 66.6187 153.305 68.0066C151.45 69.3945 150.149 70.0885 149.4 70.0885C148.937 70.0885 148.705 69.8572 148.705 69.3945L149.132 68.1486C152.841 61.5771 154.696 56.5776 154.696 53.1499C154.696 51.2994 154.09 50.3741 152.878 50.3741C150.001 50.3741 146.36 53.1762 141.955 58.7803C137.55 64.3739 133.724 70.7561 130.478 77.9269C127.232 85.0977 125.61 90.7649 125.61 94.9286C125.61 98.2616 126.816 99.9281 129.23 99.9281C133.403 99.9281 138.646 96.921 144.958 90.9068C149.869 86.3752 156.914 78.8784 166.094 68.4167C166.378 68.1433 166.61 68.0066 166.789 68.0066C166.979 68.0066 167.074 68.1906 167.074 68.5586C167.074 70.3145 166.378 72.0284 164.987 73.7001C158.126 81.281 152.051 87.6158 146.76 92.7048ZM172.085 92.7048C161.23 102.883 154.275 107.972 151.218 107.972C149.638 107.972 148.847 106.91 148.847 104.786C148.847 102.662 149.68 99.5601 151.345 95.4806C153.02 91.4115 154.691 87.8524 156.356 84.8033L158.869 80.3557C165.909 68.0539 171.242 59.2167 174.867 53.8438C176.437 51.5307 178.45 49.5645 180.906 47.9453C183.372 46.3261 185.669 45.5165 187.798 45.5165C188.535 45.5165 188.904 45.8424 188.904 46.4943C188.904 46.957 188.583 47.8349 187.94 49.1282C186.823 51.168 184.088 56.0256 179.736 63.701C175.373 71.387 172.775 76.0133 171.942 77.5799C168.138 84.246 166.236 88.6883 166.236 90.9068C166.236 91.7375 166.515 92.1528 167.074 92.1528C168.001 92.1528 170.968 89.8396 175.973 85.2133C179.873 81.3335 185.021 75.7347 191.418 68.4167C191.692 68.1433 191.924 68.0066 192.113 68.0066C192.292 68.0066 192.382 68.1906 192.382 68.5586C192.382 70.3145 191.687 72.0284 190.295 73.7001C183.435 81.281 177.365 87.6158 172.085 92.7048ZM190.58 37.615C188.261 37.615 187.102 36.2271 187.102 33.4513C187.102 30.8543 188.077 28.2415 190.027 25.6129C191.976 22.9738 194.11 21.6542 196.429 21.6542C199.211 21.6542 200.602 23.2261 200.602 26.3699C200.602 28.9564 199.533 31.4799 197.393 33.9402C195.264 36.3901 192.993 37.615 190.58 37.615ZM189.047 91.1907L183.34 101.174C182.876 102.005 182.644 102.841 182.644 103.682C182.644 105.343 183.946 106.174 186.549 106.174C189.236 106.174 192.066 104.949 195.038 102.499C197.999 100.049 200.665 97.0893 203.037 93.6195C205.397 90.1498 207.573 86.6801 209.565 83.2104C211.557 79.7406 213.064 76.7546 214.086 74.2522L215.762 70.6405C218.175 64.6263 219.382 60.2313 219.382 57.4555C219.382 55.5104 218.686 54.5378 217.295 54.5378C216.452 54.5378 215.614 54.8164 214.782 55.3737C211.821 57.2242 207.716 61.9662 202.468 69.5996C197.23 77.233 192.756 84.43 189.047 91.1907ZM212.98 37.063C213.623 37.063 213.944 37.431 213.944 38.167C213.944 39.4603 213.18 41.9574 211.652 45.6584C210.124 49.3595 208.617 52.6925 207.131 55.6576L204.775 60.2313C204.681 60.4206 204.633 60.6046 204.633 60.7833C204.633 61.0672 204.723 61.2091 204.902 61.2091C205.092 61.2091 205.371 61.0251 205.74 60.6571C206.024 60.1945 206.441 59.6372 206.989 58.9854C207.547 58.3335 208.664 57.1085 210.34 55.3106C212.005 53.5021 213.602 51.9302 215.13 50.5949C216.658 49.2491 218.423 48.0189 220.425 46.9044C222.417 45.8004 224.198 45.2484 225.768 45.2484C229.394 45.2484 231.206 48.2082 231.206 54.1277C231.206 58.9433 229.768 64.8629 226.891 71.8864C226.891 72.0757 226.359 73.3742 225.294 75.782C224.219 78.1898 222.522 81.2862 220.204 85.0714C217.885 88.8671 215.246 92.5471 212.284 96.1114C209.312 99.6758 205.624 102.751 201.219 105.338C196.814 107.935 192.292 109.233 187.656 109.233C186.359 109.233 185.153 109.07 184.036 108.744C182.929 108.418 182.096 108.092 181.538 107.767C180.979 107.441 180.61 107.278 180.431 107.278L179.451 107.845C176.943 111.546 172.954 118.391 167.485 128.38C162.015 138.368 157.657 146.743 154.412 153.504C153.948 154.334 153.347 155.444 152.609 156.832C151.861 158.22 150.423 160.717 148.294 164.323C146.155 167.93 144.136 171.1 142.239 173.833C140.342 176.567 138.256 179.064 135.98 181.325C133.703 183.596 131.78 184.731 130.21 184.731C129.282 184.731 128.819 184.316 128.819 183.485C128.819 180.983 131.532 174.575 136.96 164.26C142.376 153.945 147.825 144.204 153.305 135.035L161.509 121.44C174.957 98.0355 185.437 79.4357 192.951 65.6409C193.13 65.2729 193.404 64.7419 193.773 64.048C194.153 63.354 194.896 62.0135 196.002 60.0263C197.119 58.0391 198.189 56.1412 199.211 54.3328C200.223 52.5348 201.424 50.5476 202.815 48.3711C204.206 46.1947 205.508 44.2968 206.72 42.6776C207.921 41.0584 209.08 39.7179 210.198 38.6559C211.304 37.594 212.232 37.063 212.98 37.063ZM264.45 59.1273C265.557 56.8141 266.11 54.7796 266.11 53.0237C266.11 51.5412 265.646 50.7999 264.719 50.7999C264.171 50.7999 263.549 50.9629 262.854 51.2889C262.158 51.6043 261.621 51.9513 261.241 52.3298L260.546 52.8818C257.679 55.3737 254.086 59.9316 249.765 66.5557C245.454 73.1692 243.299 77.4012 243.299 79.2517C243.299 79.6197 243.394 79.8037 243.584 79.8037C244.142 79.8037 245.37 79.3411 247.267 78.4158C249.164 77.4906 251.899 75.3141 255.471 71.8864C259.044 68.4693 262.037 64.2162 264.45 59.1273ZM258.19 90.9068C263.101 86.3752 270.146 78.8784 279.326 68.4167C279.61 68.1433 279.842 68.0066 280.021 68.0066C280.211 68.0066 280.306 68.1906 280.306 68.5586C280.306 70.3145 279.61 72.0284 278.219 73.7001C271.358 81.281 265.283 87.6158 259.992 92.7048C256.104 96.5951 251.467 100.322 246.081 103.887C240.707 107.451 236.254 109.233 232.724 109.233C228.466 109.233 226.337 106.268 226.337 100.338C226.337 90.5388 229.973 80.2716 237.245 69.5365C244.527 58.8014 252.947 51.536 262.506 47.7403C266.489 46.079 270.104 45.2484 273.35 45.2484C276.965 45.2484 278.772 46.6836 278.772 49.554C278.772 54.9163 274.973 61.0672 267.375 68.0066C259.766 74.9461 251.23 80.219 241.766 83.8254C241.397 83.9201 241.076 84.246 240.802 84.8033C239.411 88.5989 238.715 91.974 238.715 94.9286C238.715 98.2616 239.964 99.9281 242.461 99.9281C246.456 99.9281 251.699 96.921 258.19 90.9068ZM298.943 90.3548C297.278 94.8865 294.638 98.7032 291.023 101.805C287.398 104.907 284.036 107.01 280.938 108.114C277.829 109.228 275.02 109.785 272.512 109.785C265.747 109.785 262.364 107.146 262.364 101.868C262.364 96.5057 265.33 91.6481 271.263 87.2952C274.046 85.2659 277.06 83.9253 280.306 83.2734C280.769 83.2734 281.001 83.4574 281.001 83.8254C281.001 84.0147 280.906 84.1987 280.717 84.3774C278.398 86.1438 276.196 88.8776 274.109 92.5786C272.022 96.2797 270.979 99.5181 270.979 102.294C270.979 105.07 272.138 106.458 274.457 106.458C276.311 106.458 278.145 105.69 279.958 104.155C281.77 102.63 283.14 101.085 284.068 99.5181L285.459 97.2943C287.314 94.3292 288.863 89.6083 290.106 83.1315C291.361 76.6547 292.172 70.9191 292.541 65.9248L292.968 58.4333C292.968 57.6868 292.825 57.3136 292.541 57.3136L291.988 57.5975L278.219 73.7001C277.197 74.8988 276.501 75.4981 276.132 75.4981C275.669 75.4981 275.437 75.1774 275.437 74.536C275.437 73.3269 275.763 72.4016 276.417 71.7603L277.666 70.2304C288.236 58.3808 294.264 51.21 295.75 48.7181C297.141 46.5837 299.18 44.7332 301.868 43.1665C304.46 41.684 307.522 40.9428 311.052 40.9428C311.979 40.9428 312.443 41.3108 312.443 42.0468C312.443 42.5094 312.069 42.93 311.321 43.3085C311.047 43.3926 310.699 43.5976 310.277 43.9236C309.866 44.2495 309.129 45.0118 308.064 46.2104C306.989 47.4196 306.036 48.8075 305.203 50.3741C304.37 51.9513 303.628 54.1488 302.974 56.9666C302.331 59.795 302.01 62.9177 302.01 66.3349C302.01 76.9754 300.988 84.982 298.943 90.3548Z" fill="#CCCCCC"/>
</svg>
